<?xml version="1.0"?>
<svg version="1.1" xmlns="http://www.w3.org/2000/svg" width="170" height="60" style=""><path fill="#fc5200" d="M28.8,42.4c0,3.64-0.76,6.4-2.8,8c-1.32,1.04-3.24,1.6-5.84,1.6c-0.72,0-2-0.12-2.88-0.28c-0.48-0.08-0.64-0.32-0.64-0.64c0-0.12,0-0.24,0.04-0.4l0.4-2.24c0.08-0.36,0.2-0.64,0.68-0.64c0.08,0,0.16,0.04,0.28,0.04c0.72,0.12,1.52,0.24,2.12,0.24c1.04,0,2.12-0.36,2.68-1.08c0.56-0.76,0.84-2,0.84-3.72l0-16l-4.52,0c-0.64,0-0.84-0.4-0.84-0.88l0-1.64c0-0.56,0.28-0.84,0.84-0.84l8.68,0c0.6,0,0.96,0.36,0.96,0.92l0,17.56z M54.78,41.88c0,5.76-3.52,10.2-9.76,10.2c-6.52,0-9.52-4.4-9.52-10.24c0-5.76,3.52-10.16,9.76-10.16c6.52,0,9.52,4.32,9.52,10.2z M49.78,41.88c0-3.28-1.04-6.4-4.56-6.4c-3.56,0-4.72,3.08-4.72,6.28c0,3.28,1,6.52,4.56,6.52c3.52,0,4.72-3.12,4.72-6.4z M66.44,27.12c0,1.56-1.36,2.52-2.68,2.52s-2.72-0.88-2.72-2.48s1.32-2.56,2.72-2.56c1.36,0,2.68,0.92,2.68,2.52z M66.2,50.6c0,0.72-0.32,1-1,1l-2.8,0c-0.72,0-1.04-0.28-1.04-1l0-17.48c0-0.68,0.4-0.92,1.04-0.92l2.8,0c0.64,0,1,0.2,1,0.92l0,17.48z M91.26,50.56c0,0.68-0.24,1.04-0.96,1.04l-2.88,0c-0.72,0-0.96-0.36-0.96-1.04l0-10.88c0-2.2-0.6-3.76-3.04-3.76c-1.56,0-3.48,0.84-4.72,1.92l0,12.76c0,0.68-0.28,1-0.96,1l-2.92,0c-0.6,0-0.96-0.32-0.96-0.96l0-17.44c0-0.64,0.28-1,1-1l2.6,0c0.56,0,0.92,0.16,0.96,0.76l0.04,1.04c1.84-1.48,4.16-2.32,6.48-2.32c4.48,0,6.32,2.8,6.32,7.16l0,11.72z M128.24,50.52c0.04,0.68-0.16,1.08-0.92,1.08l-3.24,0c-0.84,0-1-0.4-1.04-1.32l-0.56-16.24l-0.08,0l-6.8,16.84c-0.24,0.64-0.64,0.72-1.08,0.72l-1.4,0c-0.6,0-0.96-0.12-1.24-0.76l-7.56-16.8l-0.08,0l-0.36,16.56c0,0.88-0.36,1-1.08,1l-2.72,0c-0.76,0-1.08-0.28-1.04-1.04l1-25.56c0.04-0.84,0.32-1.08,0.96-1.08l2.36,0c0.8,0,1.08,0.28,1.36,0.88l9.24,19.76l0.08,0l8.44-19.76c0.24-0.6,0.56-0.88,1.28-0.88l2.36,0c0.64,0,0.88,0.24,0.92,0.88z M152.94,41.84c0,0.96-0.32,1.16-1.32,1.16l-11.72,0c0.32,3.08,2.56,5.2,5.72,5.2c1.68,0,3.44-0.4,4.92-0.96c0.16-0.04,0.28-0.12,0.44-0.12c0.28,0,0.48,0.16,0.56,0.48l0.56,2.04c0.04,0.2,0.08,0.36,0.08,0.48c0,0.28-0.16,0.48-0.64,0.68c-1.96,0.88-4.64,1.28-6.72,1.28c-6.28,0-10-4-10-10.24c0-6,3.96-10.16,9.92-10.16c2.44,0,4.44,0.92,5.84,2.4c1.84,1.92,2.36,4.44,2.36,7.16l0,0.6z M148.18,39.84l0-0.44c-0.08-2.08-1.28-4-3.72-4c-2.6,0-4.16,2.08-4.48,4.44l8.2,0z"/><path fill="#" d=""/></svg>
